<svg xmlns="http://www.w3.org/2000/svg" xmlns:xlink="http://www.w3.org/1999/xlink"><symbol id="moon-icon" viewBox="0 0 512 512">
  <path fill="var(--ci-primary-color, currentColor)" d="M268.279,496c-67.574,0-130.978-26.191-178.534-73.745S16,311.293,16,243.718A252.252,252.252,0,0,1,154.183,18.676a24.44,24.44,0,0,1,34.46,28.958,220.12,220.12,0,0,0,54.8,220.923A218.746,218.746,0,0,0,399.085,333.2h0a220.2,220.2,0,0,0,65.277-9.846,24.439,24.439,0,0,1,28.959,34.461A252.256,252.256,0,0,1,268.279,496ZM153.31,55.781A219.3,219.3,0,0,0,48,243.718C48,365.181,146.816,464,268.279,464a219.3,219.3,0,0,0,187.938-105.31,252.912,252.912,0,0,1-57.13,6.513h0a250.539,250.539,0,0,1-178.268-74.016,252.147,252.147,0,0,1-67.509-235.4Z" class="ci-primary"/>
</symbol><symbol id="sun-icon" viewBox="0 0 64 64">
  <g>
    <g fill="var(--ci-primary-color, currentColor)">
      <path d="m31.963,17.177c-8.13,0-14.743,6.613-14.743,14.743 0,8.128 6.613,14.741 14.743,14.741 8.131,0 14.743-6.613 14.743-14.741 0-8.129-6.612-14.743-14.743-14.743zm0,25.467c-5.915,0-10.726-4.811-10.726-10.724 0-5.915 4.811-10.726 10.726-10.726s10.726,4.811 10.726,10.726c-0.001,5.913-4.811,10.724-10.726,10.724z"/>
      <path d="m31.963,14.15c1.111,0 2.01-0.898 2.01-2.009v-10.203c0-1.11-0.898-2.009-2.01-2.009-1.109-2.22045e-16-2.009,0.898-2.009,2.009v10.203c0,1.11 0.9,2.009 2.009,2.009z"/>
      <path d="m31.963,49.707c-1.109,0-2.009,0.898-2.009,2.009v10.204c0,1.11 0.899,2.009 2.009,2.009 1.111,0 2.01-0.898 2.01-2.009v-10.205c0-1.11-0.899-2.008-2.01-2.008z"/>
      <path d="m61.919,29.927h-10.204c-1.11,0-2.009,0.898-2.009,2.009s0.898,2.009 2.009,2.009h10.204c1.11,0 2.009-0.898 2.009-2.009s-0.899-2.009-2.009-2.009z"/>
      <path d="m14.146,31.936c0-1.11-0.898-2.009-2.009-2.009h-10.2c-1.109,0-2.008,0.898-2.008,2.009s0.898,2.009 2.008,2.009h10.2c1.11,0 2.009-0.899 2.009-2.009z"/>
      <path d="m47.285,18.622c0.514,0 1.028-0.196 1.421-0.589l5.219-5.219c0.784-0.784 0.784-2.056 0-2.84-0.785-0.785-2.057-0.785-2.842,0l-5.218,5.218c-0.785,0.785-0.785,2.056 0,2.841 0.393,0.392 0.906,0.589 1.42,0.589z"/>
      <path d="m15.221,45.835l-5.227,5.23c-0.784,0.784-0.784,2.058 0,2.84 0.393,0.392 0.906,0.588 1.421,0.588 0.514,0 1.027-0.196 1.42-0.588l5.227-5.23c0.784-0.785 0.784-2.058 0-2.841-0.786-0.784-2.057-0.784-2.841,0.001z"/>
      <path d="m15.209,18.035c0.393,0.393 0.906,0.589 1.42,0.589 0.515,0 1.028-0.196 1.421-0.589 0.784-0.785 0.784-2.056 0-2.841l-5.219-5.218c-0.785-0.785-2.057-0.785-2.841,0-0.784,0.784-0.784,2.056 0,2.84l5.219,5.219z"/>
      <path d="m48.694,45.837c-0.785-0.785-2.057-0.785-2.841,0-0.785,0.785-0.785,2.058 0,2.841l5.229,5.226c0.393,0.392 0.906,0.588 1.421,0.588 0.514,0 1.028-0.196 1.421-0.588 0.784-0.785 0.784-2.058 0-2.84l-5.23-5.227z"/>
    </g>
  </g>
</symbol></svg>